# Blender 3.4.1
# www.blender.org
mtllib testCube.mtl
o Cube
v -0.877004 0.000000 0.742434
v -0.298289 0.731538 -0.014168
v -0.877004 0.000000 -0.967894
v -0.877004 1.298437 -0.967894
v 1.710103 0.000000 0.742434
v 0.859141 0.896177 0.182955
v 1.710103 0.000000 -0.967894
v 1.710487 1.300210 -0.968402
vn -0.8947 0.3557 0.2701
vn -0.0001 -0.0002 -1.0000
vn 0.8562 0.4113 0.3128
vn -0.0684 0.6203 0.7814
vn -0.0000 -1.0000 -0.0000
vn -0.0620 0.9093 0.4114
vt 0.375000 0.000000
vt 0.375000 1.000000
vt 0.125000 0.750000
vt 0.625000 0.000000
vt 0.625000 1.000000
vt 0.875000 0.750000
vt 0.375000 0.250000
vt 0.125000 0.500000
vt 0.625000 0.250000
vt 0.875000 0.500000
vt 0.375000 0.750000
vt 0.625000 0.750000
vt 0.375000 0.500000
vt 0.625000 0.500000
s 0
f 1/1/1 2/4/1 4/9/1 3/7/1
f 3/7/2 4/9/2 8/14/2 7/13/2
f 7/13/3 8/14/3 6/12/3 5/11/3
f 5/11/4 6/12/4 2/5/4 1/2/4
f 3/8/5 7/13/5 5/11/5 1/3/5
f 8/14/6 4/10/6 2/6/6 6/12/6
