<svg xmlns="http://www.w3.org/2000/svg" width="63.337" height="73.282" viewBox="0 0 63.337 73.282">
  <g id="Capa_2" data-name="Capa 2" transform="translate(0)" opacity="0.5">
    <g id="Capa_1" data-name="Capa 1" transform="translate(0 0)">
      <path id="Trazado_104" data-name="Trazado 104" d="M39.845,15.191V9.913h1.119a4.956,4.956,0,0,0,4.956-4.956h0A4.956,4.956,0,0,0,40.964,0H27.01a4.956,4.956,0,0,0-4.956,4.956h0A4.956,4.956,0,0,0,27.01,9.913h1.119v5.278A29.256,29.256,0,0,0,15.372,21.28c.337-.277.672-.558,1.022-.82A3.661,3.661,0,1,0,12,14.6,36.82,36.82,0,0,0,.3,29.447a3.661,3.661,0,1,0,6.723,2.9c.064-.149.146-.288.213-.435A29.34,29.34,0,1,0,39.845,15.191Zm-2.2,51.932V59.717a3.66,3.66,0,1,0-7.32,0v7.407A23.5,23.5,0,0,1,10.814,47.611H18.22a3.661,3.661,0,1,0,0-7.322H10.814A23.474,23.474,0,1,1,37.647,67.124Zm14.413-26A18.337,18.337,0,0,0,36.817,25.876a2.438,2.438,0,0,0-2.83,2.394V41.529a2.421,2.421,0,0,0,2.421,2.421H49.666a2.438,2.438,0,0,0,2.395-2.83Z" transform="translate(0 0)" fill="#b6f0bc"/>
    </g>
  </g>
</svg>
