<svg id="Capa_1" data-name="Capa 1" xmlns="http://www.w3.org/2000/svg" width="63.591" height="65.349" viewBox="0 0 63.591 65.349">
  <path id="Trazado_107" data-name="Trazado 107" d="M60.033,32.829A18.037,18.037,0,0,0,51.481,29.4,17.825,17.825,0,0,0,58.4,23.21a10.027,10.027,0,0,0,.55-9.009,15.53,15.53,0,0,0-6.683-6.936,9.707,9.707,0,0,0-8.579.008,14.976,14.976,0,0,0-4.591,3.661,14.881,14.881,0,0,0-1.625-5.712A10.025,10.025,0,0,0,30.04.1a15.5,15.5,0,0,0-9.393,2.136,9.717,9.717,0,0,0-4.425,7.349,14.98,14.98,0,0,0,.762,5.823,14.872,14.872,0,0,0-5.729-1.559,10.067,10.067,0,0,0-8.226,3.714A15.528,15.528,0,0,0,.008,26.7a9.717,9.717,0,0,0,4.006,7.587A15,15,0,0,0,9.4,36.64,14.89,14.89,0,0,0,5.1,40.748a10.025,10.025,0,0,0-1.07,8.961,15.528,15.528,0,0,0,6.27,7.313,10.073,10.073,0,0,0,4.8,1.257,9.794,9.794,0,0,0,3.769-.769A15.112,15.112,0,0,0,23.782,54a14.742,14.742,0,0,0,1.282,5.628,10.024,10.024,0,0,0,7.121,5.545,9.626,9.626,0,0,0,2.107.207,16.008,16.008,0,0,0,7.392-1.8A9.723,9.723,0,0,0,46.528,56.5a14.644,14.644,0,0,0-.333-5.463,14.7,14.7,0,0,0,5.426,1.781,10.316,10.316,0,0,0,1.039.052,10.068,10.068,0,0,0,7.389-3.284,15.528,15.528,0,0,0,3.546-8.955,9.716,9.716,0,0,0-3.562-7.8ZM46.019,12.091a4.385,4.385,0,0,1,1.929-.469,4.856,4.856,0,0,1,2.06.5,10.578,10.578,0,0,1,3.962,4.058,4.665,4.665,0,0,1-.205,4.345c-1.924,3.323-7.446,5.771-12.707,7.378a10.491,10.491,0,0,0-3.409-3.742c.022-.088.044-.177.066-.265C39.775,18.87,42.647,13.72,46.019,12.091ZM21.554,10.073a4.354,4.354,0,0,1,2.084-3.4,11.148,11.148,0,0,1,4.949-1.337,3.579,3.579,0,0,1,.573.04A4.665,4.665,0,0,1,32.776,7.8c1.821,3.308,1.118,9.156-.182,14.425l-.065.158a10.519,10.519,0,0,0-5.057.877c-.029.013-.055.029-.084.042l-.022-.022C24.132,18.92,21.207,13.8,21.554,10.073ZM5.355,26.439a10.584,10.584,0,0,1,1.742-5.4,4.677,4.677,0,0,1,3.72-1.848c.073,0,.146,0,.221,0,3.741.149,8.338,3.711,12.157,7.509a10.4,10.4,0,0,0-1.984,5.121c-5.32.477-11.093.313-14.02-1.845a4.352,4.352,0,0,1-1.835-3.543ZM16.812,52.564a4.366,4.366,0,0,1-3.98-.259,10.575,10.575,0,0,1-3.721-4.28A4.665,4.665,0,0,1,9.567,43.7c2.028-3.079,7.321-5.158,12.472-6.47l0,.01a10.524,10.524,0,0,0,3.576,4.368C23.289,46.388,20.191,51.166,16.812,52.564ZM41.233,55.7a4.356,4.356,0,0,1-2.278,3.273,10.65,10.65,0,0,1-5.587.975,4.67,4.67,0,0,1-3.47-2.626c-1.566-3.281-.662-8.777.837-13.807.335.032.667.049,1,.049a10.63,10.63,0,0,0,4.443-.986q.442.5.9,1C39.666,47.771,41.738,52.374,41.233,55.7Zm14.954-9.824a4.674,4.674,0,0,1-4.041,1.613c-3.412-.334-7.376-3.57-10.78-7.194q-.44-.7-.886-1.373A10.512,10.512,0,0,0,41.632,36.8a10.653,10.653,0,0,0,.627-2.515c5.472-.222,11.444.244,14.354,2.663a4.354,4.354,0,0,1,1.625,3.642A10.579,10.579,0,0,1,56.187,45.879Z" transform="translate(-0.008 -0.031)" fill="#b6f0bc"/>
</svg>
