<svg xmlns="http://www.w3.org/2000/svg" width="71.124" height="52.106" viewBox="0 0 71.124 52.106">
  <g id="Capa_2" data-name="Capa 2" transform="translate(-0.001 0)" opacity="0.5">
    <g id="Capa_1" data-name="Capa 1" transform="translate(0.001 0)">
      <path id="Trazado_116" data-name="Trazado 116" d="M36.922,15.916h-2.88a.466.466,0,0,0-.46.442L32.6,31.648a.481.481,0,0,0,.123.355.456.456,0,0,0,.337.15h4.853a.457.457,0,0,0,.336-.15.482.482,0,0,0,.124-.354l-.986-15.29a.467.467,0,0,0-.46-.441ZM70.484,32.33l0,0-.025-.079c-.015-.049-.032-.1-.047-.145L64.57,13.96A12.814,12.814,0,0,0,55.977,5.3l-.962-3.537a.593.593,0,0,0-.217-.321C54.746,1.4,49.543-2.4,45.506,2.506a.609.609,0,0,0-.13.473l.544,3.642a13.13,13.13,0,0,0-6.24,11.219l1.6,19.991c.016.239.031.479.057.715l.013.162h.012a15.255,15.255,0,0,0,9.82,12.514A14.661,14.661,0,0,0,66.5,47.868,15.606,15.606,0,0,0,70.484,32.33ZM45.023,26.583l-.712-8.835a8.247,8.247,0,0,1,6.95-8.137,8.1,8.1,0,0,1,8.9,5.8l2.419,7.507a14.576,14.576,0,0,0-17.559,3.665ZM56.177,47.349a10.423,10.423,0,0,1-10.231-9.28l-.059-.731c-.01-.193-.028-.383-.028-.578A10.507,10.507,0,0,1,54.569,26.3,10.3,10.3,0,0,1,65.991,33.5l.053.165a10.812,10.812,0,0,1-1.573,9.394A10.23,10.23,0,0,1,56.177,47.349ZM25.221,6.632l.571-3.488a.606.606,0,0,0-.144-.5c-4.062-4.553-9.239-1.257-9.291-1.223a.593.593,0,0,0-.246.342L15.149,5.3a12.781,12.781,0,0,0-8.581,8.62L.707,32.1c-.015.048-.032.1-.046.144l-.025.079.005,0A15.606,15.606,0,0,0,4.632,47.863,14.66,14.66,0,0,0,19.94,51.215a15.254,15.254,0,0,0,9.821-12.509h.011l.013-.154c.028-.241.042-.486.059-.73l1.593-19.788.008-.2A13.13,13.13,0,0,0,25.221,6.632Zm.017,30.689-.061.756A10.532,10.532,0,0,1,18.4,46.739,10.121,10.121,0,0,1,7.815,44.417,10.775,10.775,0,0,1,5.081,33.668l.053-.165a10.3,10.3,0,0,1,11.423-7.2,10.508,10.508,0,0,1,8.71,10.461C25.266,36.948,25.248,37.133,25.239,37.32ZM26.1,26.583A14.577,14.577,0,0,0,8.544,22.918l2.432-7.549a8.1,8.1,0,0,1,8.909-5.756,8.247,8.247,0,0,1,6.929,8.135Z" transform="translate(-0.001 0)" fill="#b6f0bc"/>
    </g>
  </g>
</svg>
