<svg xmlns="http://www.w3.org/2000/svg" width="47.819" height="78" viewBox="0 0 47.819 78">
  <g id="Capa_2" data-name="Capa 2" transform="translate(0 -0.008)" opacity="0.5">
    <g id="Capa_1" data-name="Capa 1" transform="translate(0 0.008)">
      <path id="Trazado_105" data-name="Trazado 105" d="M3.937,30.634l11.154,1.5a2.783,2.783,0,0,0,3.124-2.348,34.977,34.977,0,0,1,2.929-8.566c2.169-4.936,4.412-10.04,1.869-15A11.2,11.2,0,0,0,15.089.17a11.015,11.015,0,0,0-9.4,2.8C-.451,8.527-.723,20.161,1.621,28.616A2.794,2.794,0,0,0,3.937,30.634ZM9.024,6.658a6.023,6.023,0,0,1,5.171-1.6,6.266,6.266,0,0,1,4.393,3.43c1.463,2.851-.14,6.5-2,10.726a48.126,48.126,0,0,0-2.872,7.712L6.065,25.9C4.5,19,4.975,10.323,9.024,6.658Zm8.147,30.668a2.181,2.181,0,0,0-1.892-2.039l-11.356-1.5a2.184,2.184,0,0,0-2.266,1.247C-1.858,42.623.856,48.5,3.905,50.247a10.448,10.448,0,0,0,4.92,1.144,8.264,8.264,0,0,0,2.841-.444C13.964,50.081,17.734,47.159,17.171,37.326Zm30.013-1.194a11.016,11.016,0,0,0-6.757-7.114,11.19,11.19,0,0,0-9.885,1.3c-4.675,3.029-5.273,8.573-5.852,13.933a35.012,35.012,0,0,1-1.729,8.886l0,.007a2.791,2.791,0,0,0,1.536,3.582l10.437,4.266a2.807,2.807,0,0,0,1.044.2,2.774,2.774,0,0,0,1.954-.8c6.248-6.165,11.808-16.387,9.254-24.261ZM35.431,55.825,28.282,52.9a48.108,48.108,0,0,0,1.353-8.118c.5-4.588.923-8.551,3.613-10.294a6.273,6.273,0,0,1,5.516-.784,6.011,6.011,0,0,1,3.689,3.962C44.138,42.86,40.228,50.62,35.431,55.825Zm-2.071,7.9L22.765,59.373a2.181,2.181,0,0,0-2.656.824c-5.387,8.245-3.573,12.655-2.013,14.55a10.54,10.54,0,0,0,7.078,3.26h.007c3.514,0,8.788-3.742,9.522-12.07a2.18,2.18,0,0,0-1.344-2.21Z" transform="translate(0 -0.008)" fill="#b6f0bc"/>
    </g>
  </g>
</svg>
